<svg xmlns="http://www.w3.org/2000/svg" width="512" height="512" viewBox="0 0 512 512">
  <defs>
    <radialGradient id="field" cx="50%" cy="35%" r="80%">
      <stop offset="0%" stop-color="#3fbf52"/>
      <stop offset="100%" stop-color="#177a2a"/>
    </radialGradient>
    <radialGradient id="ball" cx="38%" cy="32%" r="75%">
      <stop offset="0%" stop-color="#ffffff"/>
      <stop offset="70%" stop-color="#eaeaea"/>
      <stop offset="100%" stop-color="#b9b9b9"/>
    </radialGradient>
  </defs>
  <rect width="512" height="512" rx="112" fill="url(#field)"/>
  <circle cx="256" cy="256" r="150" fill="none" stroke="#ffffff" stroke-width="10" opacity="0.35"/>
  <line x1="256" y1="20" x2="256" y2="492" stroke="#ffffff" stroke-width="8" opacity="0.25"/>
  <g transform="translate(256 256)">
    <circle r="120" fill="url(#ball)" stroke="#111" stroke-width="6"/>
    <polygon points="0,-46 44,-14 27,38 -27,38 -44,-14" fill="#141414"/>
    <g fill="#141414">
      <polygon points="0,-120 26,-100 0,-70 -26,-100"/>
      <polygon points="114,-38 96,-8 60,-26 70,-62"/>
      <polygon points="70,96 34,74 54,40 92,52"/>
      <polygon points="-70,96 -92,52 -54,40 -34,74"/>
      <polygon points="-114,-38 -70,-62 -60,-26 -96,-8"/>
    </g>
  </g>
</svg>
