<svg xmlns="http://www.w3.org/2000/svg" viewBox="0 0 100 100">
  <defs>
    <radialGradient id="c" cx="38%" cy="32%" r="72%">
      <stop offset="0" stop-color="#ffffff"/>
      <stop offset=".72" stop-color="#efefef"/>
      <stop offset="1" stop-color="#c7c7c7"/>
    </radialGradient>
  </defs>
  <circle cx="50" cy="50" r="49" fill="url(#c)" stroke="#2a2a2a" stroke-width="2"/>
  <g fill="#171717">
    <polygon points="50,33 63,42.5 58,58 42,58 37,42.5"/>
    <polygon points="50,1 58,7 54,15 46,15 42,7"/>
    <polygon points="99,42 92,54 82,49 84,38 95,35"/>
    <polygon points="79,93 66,86 70,74 82,76 86,84"/>
    <polygon points="21,93 14,84 18,76 30,74 34,86"/>
    <polygon points="1,42 5,35 16,38 18,49 8,54"/>
  </g>
  <g stroke="#171717" stroke-width="2.4" fill="none" stroke-linecap="round">
    <line x1="50" y1="33" x2="50" y2="15"/>
    <line x1="63" y1="42.5" x2="83" y2="43"/>
    <line x1="58" y1="58" x2="69" y2="75"/>
    <line x1="42" y1="58" x2="31" y2="75"/>
    <line x1="37" y1="42.5" x2="17" y2="43"/>
  </g>
</svg>
